<?xml version="1.0" standalone="no"?>
<!DOCTYPE svg PUBLIC "-//W3C//DTD SVG 20010904//EN"
 "http://www.w3.org/TR/2001/REC-SVG-20010904/DTD/svg10.dtd">
<svg version="1.0" xmlns="http://www.w3.org/2000/svg"
 width="700.000000pt" height="500.000000pt" viewBox="0 0 700.000000 500.000000"
 preserveAspectRatio="xMidYMid meet">

<g transform="translate(0.000000,500.000000) scale(0.100000,-0.100000)"
fill="#000000" stroke="none">
<path d="M3515 3999 c-129 -21 -175 -60 -194 -161 -16 -81 -11 -96 38 -129 43
-30 57 -72 39 -117 -13 -32 -12 -46 7 -87 13 -29 42 -477 50 -775 2 -69 8
-172 15 -229 11 -100 10 -106 -8 -120 -34 -27 -36 -57 -8 -94 28 -37 32 -57
14 -75 -8 -8 -8 -15 1 -26 16 -19 21 -67 25 -266 2 -91 7 -172 9 -180 3 -8 8
-119 10 -247 l5 -231 -126 0 c-197 0 -210 -16 -24 -32 215 -18 199 -35 -25
-27 -98 4 -213 10 -255 13 l-78 7 0 86 c0 47 -7 187 -15 311 -18 271 -17 389
2 411 10 12 11 23 4 43 -10 24 -15 26 -70 26 -50 0 -62 -4 -75 -22 -13 -19
-14 -25 -2 -42 20 -31 26 -112 32 -412 l5 -273 -31 1 c-19 1 -35 8 -41 20 -5
10 -14 141 -19 290 -5 150 -12 332 -15 403 -4 72 -8 180 -10 240 -3 61 -7 178
-10 260 -11 271 -12 380 -2 402 7 15 6 27 0 35 -6 7 -14 27 -17 43 -6 26 -1
38 29 72 31 36 34 45 25 68 -5 14 -10 40 -10 57 0 23 -4 29 -15 24 -8 -3 -15
-1 -15 4 0 5 -7 7 -15 4 -8 -4 -15 -1 -15 4 0 17 -40 25 -55 12 -12 -10 -15
-10 -15 0 0 13 -63 4 -68 -11 -2 -4 -10 -5 -18 -2 -28 10 -61 -23 -68 -70 -7
-47 2 -77 36 -119 19 -25 20 -31 9 -68 -9 -29 -9 -45 -2 -54 7 -8 13 -133 16
-342 3 -181 7 -420 10 -531 5 -197 4 -203 -15 -203 -29 0 -45 -36 -27 -63 11
-17 15 -70 16 -239 l2 -217 -33 -4 -33 -4 33 -1 c31 -2 32 -3 32 -45 0 -41 -2
-44 -36 -55 -32 -9 -37 -9 -41 7 -6 23 -57 31 -197 31 -156 0 -142 -14 -151
163 -8 179 -10 785 -3 793 3 2 3 24 1 48 -4 34 -1 50 16 72 18 26 19 33 9 66
-10 33 -16 38 -54 46 -35 8 -140 1 -149 -10 -2 -2 -6 -22 -10 -45 -5 -34 -3
-45 13 -61 17 -17 19 -37 21 -223 1 -112 -1 -320 -5 -461 l-7 -257 -81 -4 -81
-3 83 -2 82 -2 0 -39 c0 -29 -5 -41 -17 -44 -17 -4 -17 -5 0 -6 9 0 17 -5 17
-11 0 -6 -40 -10 -99 -10 l-99 0 -7 305 c-4 167 -4 317 -1 332 4 15 7 45 6 67
-1 23 6 46 16 57 14 16 15 23 4 49 -12 29 -15 30 -76 30 -52 0 -65 -3 -74 -19
-14 -28 -12 -57 5 -71 13 -11 14 -48 11 -259 -3 -135 -8 -292 -12 -349 l-7
-102 -28 0 -29 0 -1 88 c-1 48 -1 90 0 94 0 3 1 71 1 150 1 98 5 149 14 163 9
13 10 28 5 43 -7 19 -15 22 -68 22 -52 0 -61 -3 -66 -21 -4 -12 -2 -26 4 -32
12 -12 15 -192 4 -324 -6 -83 -6 -83 -34 -83 -23 0 -30 6 -35 26 -10 38 5 306
17 321 6 6 8 21 4 33 -5 17 -15 20 -61 20 -51 0 -54 -2 -54 -24 0 -14 4 -27 9
-31 9 -5 5 -305 -4 -332 -4 -12 -45 -17 -240 -33 -66 -5 -160 -13 -210 -18
-51 -6 -126 -6 -175 -1 -47 4 -143 8 -215 9 -72 1 -123 4 -115 7 8 2 24 8 35
13 11 5 40 13 65 18 34 8 -3 10 -156 11 -111 1 -222 -2 -248 -5 -43 -6 -46 -9
-46 -36 l0 -29 260 3 c143 2 255 1 249 -1 -6 -2 -47 -9 -92 -15 l-82 -12 89
-8 c118 -11 95 -22 -70 -36 -71 -6 -172 -14 -224 -19 -52 -5 -103 -9 -112 -10
-17 -1 -18 -39 -18 -651 l0 -650 433 1 c237 1 425 3 417 4 -8 2 -32 6 -52 10
-21 3 -38 11 -38 17 0 7 38 9 127 3 132 -7 161 -13 127 -26 -10 -4 1332 -8
2984 -8 l3002 -1 0 511 0 511 -127 -7 c-138 -8 -166 -1 -43 10 41 4 77 9 79
11 2 2 -84 4 -191 4 -161 0 -198 3 -208 15 -14 17 -10 19 65 31 66 10 142 11
298 1 l127 -7 0 40 c0 40 0 40 -37 40 -99 0 -469 22 -475 28 -4 4 -14 48 -22
97 -70 419 -182 1042 -295 1640 -44 231 -45 241 -31 275 11 27 10 32 -14 61
-37 44 -34 77 14 128 46 49 48 58 20 94 -11 14 -20 32 -20 41 0 52 -213 37
-358 -25 -35 -15 -42 -23 -37 -38 3 -12 -3 -38 -16 -62 l-21 -43 25 -20 c14
-12 37 -29 52 -39 34 -24 44 -54 31 -88 -8 -22 -7 -32 6 -46 19 -21 41 -124
42 -195 1 -27 5 -48 10 -48 4 0 6 -13 4 -29 -2 -17 -1 -28 3 -26 10 7 16 -13
24 -80 6 -42 5 -56 -4 -51 -15 9 -14 0 3 -27 23 -38 39 -133 26 -157 -6 -11
-8 -26 -3 -33 7 -12 14 -69 15 -117 0 -13 6 -33 14 -44 10 -14 11 -23 2 -33
-6 -8 -7 -13 0 -13 13 0 23 -38 11 -46 -5 -3 -2 -12 6 -20 17 -18 18 -24 6
-43 -6 -10 -5 -18 4 -25 16 -12 37 -179 23 -184 -4 -2 -8 -8 -8 -13 0 -4 6 -6
14 -3 11 4 16 -11 21 -73 4 -43 14 -109 24 -148 9 -38 16 -101 16 -140 -1 -38
3 -76 8 -82 5 -7 7 -20 3 -28 -3 -9 1 -26 9 -39 8 -12 12 -26 9 -29 -4 -4 -1
-13 6 -21 6 -9 13 -40 14 -69 2 -30 5 -58 8 -63 7 -10 28 -119 28 -141 0 -7
-5 -13 -11 -13 -6 0 -9 12 -7 28 3 25 1 27 -29 24 -17 -2 -110 1 -205 7 -95 6
-319 13 -498 15 -261 3 -516 18 -526 29 -1 1 -18 146 -38 322 -20 176 -41 345
-46 375 -6 30 -12 78 -15 105 -2 28 -20 178 -40 335 -20 157 -38 323 -41 370
-2 47 -7 101 -10 121 -5 29 -1 41 20 66 25 30 26 34 14 73 -11 34 -19 42 -49
50 -20 6 -58 7 -85 4 -61 -7 -156 -43 -148 -56 3 -5 0 -23 -7 -40 -12 -28 -10
-32 26 -65 34 -31 37 -37 31 -74 -3 -21 -2 -47 4 -56 9 -18 27 -170 35 -313 3
-41 8 -91 12 -110 3 -19 5 -41 4 -48 -1 -7 3 -56 9 -110 20 -173 21 -186 35
-371 3 -52 11 -105 16 -118 5 -14 7 -28 4 -32 -2 -5 2 -66 11 -137 8 -71 17
-167 21 -213 l5 -84 -23 6 c-13 4 -82 7 -154 8 -118 1 -126 2 -85 12 l45 12
-52 3 c-29 2 -77 -1 -107 -7 -36 -7 -86 -7 -148 0 -51 5 -129 9 -173 8 l-80
-2 -7 99 c-9 118 -32 418 -52 674 -8 102 -18 221 -21 265 -3 44 -7 98 -10 120
-2 22 -7 87 -10 145 -4 58 -8 121 -10 140 -13 135 -28 311 -45 540 -18 239
-18 266 -4 288 18 27 11 80 -12 89 -26 10 -17 79 15 115 43 50 53 74 45 113
-3 19 -10 38 -15 41 -5 3 -9 18 -9 33 0 36 -24 57 -80 70 -51 12 -75 12 -145
0z m-2071 -2565 c11 -4 16 -19 16 -50 0 -42 -1 -44 -29 -44 -37 0 -41 6 -34
58 6 42 15 48 47 36z m-144 -19 c0 -10 -10 -15 -32 -14 l-33 1 30 13 c17 8 31
14 33 15 1 0 2 -7 2 -15z m0 -59 c0 -23 -3 -25 -71 -28 -38 -2 -81 0 -95 4
-14 3 -111 0 -217 -8 -218 -16 -423 -18 -431 -5 -7 10 27 21 67 21 29 0 38 19
10 22 -71 6 136 14 410 16 l327 3 0 -25z m1590 -71 c0 -48 -4 -51 -44 -35 -21
8 -26 16 -26 45 0 33 2 35 35 35 35 0 35 0 35 -45z m-1591 -84 c0 -10 -2 -11
-6 -3 -2 6 -17 11 -31 11 -24 -2 -24 -2 -4 -6 23 -5 32 -25 10 -22 -7 1 -29 1
-47 0 -51 -2 -26 -19 34 -24 28 -2 -6 -3 -75 -1 -69 2 -141 6 -160 9 -19 4
-78 9 -130 13 l-95 7 120 13 c66 8 127 14 135 15 8 1 68 3 132 3 103 1 118 -1
117 -15z m561 9 c19 -6 9 -8 -37 -9 -36 -1 -63 3 -63 9 0 12 64 12 100 0z
m-240 -10 c0 -5 -11 -10 -25 -10 -14 0 -25 5 -25 10 0 6 11 10 25 10 14 0 25
-4 25 -10z m2539 -21 c26 -9 93 -10 266 -5 250 7 245 8 245 -43 0 -16 -23 -17
-307 -14 -170 1 -346 6 -393 11 l-85 8 55 10 55 9 -55 5 c-44 4 -56 9 -58 24
-4 18 2 19 119 13 68 -3 139 -11 158 -18z m-2216 2 c10 -1 17 -9 17 -20 0 -21
-18 -25 -147 -35 l-63 -4 0 28 c0 28 2 29 58 32 31 2 71 3 87 2 17 -1 38 -2
48 -3z m2395 2 c-21 -2 -57 -2 -80 0 -24 2 -7 4 37 4 44 0 63 -2 43 -4z
m-2894 -20 c4 -9 -4 -13 -24 -13 -27 0 -38 9 -25 21 9 10 45 4 49 -8z m776 7
c-11 -7 -3 -10 30 -11 34 0 40 -2 25 -9 -28 -12 -85 -12 -85 0 0 6 -13 10 -30
10 -16 0 -30 5 -30 10 0 6 24 10 53 10 37 0 48 -3 37 -10z m-596 -25 c4 -11
-2 -15 -24 -15 -20 0 -30 5 -30 15 0 9 9 15 24 15 13 0 26 -7 30 -15z m3636 5
c596 -26 600 -37 15 -36 l-380 1 -3 23 c-3 21 0 22 60 22 35 0 173 -5 308 -10z
m615 -64 c50 0 133 4 186 8 71 7 98 6 103 -3 12 -18 34 -171 26 -171 -4 0 -11
21 -15 46 -13 91 -10 89 -148 91 -151 1 -327 22 -327 39 0 8 11 9 43 1 23 -6
83 -10 132 -11z m-1942 -113 c-7 -2 -19 -2 -25 0 -7 3 -2 5 12 5 14 0 19 -2
13 -5z m1982 -53 c-110 -12 -237 -11 -230 0 4 6 64 9 153 8 124 -1 136 -2 77
-8z m932 -4 c3 -3 -41 -6 -98 -6 -57 0 -128 -3 -156 -6 -42 -5 -53 -4 -53 7 0
11 28 14 150 13 83 -1 154 -4 157 -8z m-642 -53 c4 -21 11 -54 16 -73 12 -47
12 -77 -1 -64 -5 5 -14 38 -18 72 -5 34 -12 65 -15 69 -4 3 -21 6 -39 5 l-33
-1 25 14 c43 24 58 19 65 -22z m-5215 -33 c74 4 91 4 193 -9 101 -12 107 -15
107 -42 0 -19 -4 -20 -57 -12 -64 9 -131 8 -140 -1 -13 -13 10 -19 94 -23 120
-6 119 -14 -2 -14 -203 1 -239 2 -246 6 -3 3 -92 5 -197 5 -104 1 -193 4 -196
8 -4 3 -49 5 -101 3 -83 -2 -316 12 -401 25 -19 3 -31 10 -31 20 0 10 5 12 16
7 9 -4 70 -8 136 -8 141 -1 158 -3 130 -15 -14 -6 -4 -8 35 -8 42 0 48 2 25 7
l-30 7 32 11 c22 8 35 8 39 2 3 -6 17 -8 33 -3 34 9 55 10 250 19 90 4 173 11
185 15 12 5 32 7 46 3 14 -3 50 -4 80 -3z m457 -42 c14 -18 23 -58 13 -58 -31
0 -60 22 -60 45 0 27 29 35 47 13z m483 -48 l-35 -7 33 -8 c64 -15 22 -17 -80
-4 -118 15 -104 26 32 26 60 0 75 -2 50 -7z m2794 -82 c-4 -13 -11 -26 -16
-29 -6 -4 -6 -9 1 -13 16 -10 13 -26 -4 -26 -9 0 -18 -7 -21 -15 -4 -8 -9 -15
-13 -15 -13 0 -5 34 17 78 24 45 48 58 36 20z m1546 -212 c0 -32 6 -50 24 -69
20 -21 23 -32 17 -54 -7 -23 -13 -28 -37 -26 -22 2 -25 0 -14 -7 13 -8 12 -10
-3 -10 -27 0 -32 28 -9 59 17 24 19 36 13 89 -4 34 -4 62 1 62 4 0 8 -20 8
-44z m-5225 -36 c-22 -4 -47 -4 -55 1 -10 5 5 8 40 8 55 -1 55 -1 15 -9z m325
0 c0 -5 8 -10 17 -10 9 0 14 -3 11 -6 -3 -3 -34 -2 -68 2 -40 4 -57 10 -48 15
18 12 88 11 88 -1z m-17 -67 c-13 -2 -33 -2 -45 0 -13 2 -3 4 22 4 25 0 35 -2
23 -4z m165 0 c-10 -2 -26 -2 -35 0 -10 3 -2 5 17 5 19 0 27 -2 18 -5z m276
-1 c5 -8 -124 -5 -133 3 -2 3 25 5 62 5 36 0 68 -4 71 -8z m-389 -22 c4 -6 -8
-10 -29 -10 -19 0 -38 5 -41 10 -4 6 8 10 29 10 19 0 38 -4 41 -10z m-205 -40
l-35 -7 35 -5 c27 -4 22 -5 -23 -6 -50 -2 -56 0 -45 13 8 9 30 14 58 13 44 -1
45 -1 10 -8z m-902 -57 c-10 -2 -28 -2 -40 0 -13 2 -5 4 17 4 22 1 32 -1 23
-4z m1112 -3 c0 -12 -127 -12 -155 0 -13 6 9 9 68 9 52 1 87 -3 87 -9z m280 0
c0 -5 -20 -10 -44 -10 -25 0 -48 5 -51 10 -4 6 13 10 44 10 28 0 51 -4 51 -10z
m147 -16 c-3 -3 -12 -4 -19 -1 -8 3 -5 6 6 6 11 1 17 -2 13 -5z m-1239 -31
c-10 -2 -28 -2 -40 0 -13 2 -5 4 17 4 22 1 32 -1 23 -4z m1347 -24 c-22 -4
-49 -8 -60 -8 -17 -1 -17 1 -5 9 8 5 35 9 60 9 l45 -1 -40 -9z m-92 -6 c-7 -2
-19 -2 -25 0 -7 3 -2 5 12 5 14 0 19 -2 13 -5z m-1083 -52 c40 -8 36 -9 -38
-10 -53 -1 -81 3 -77 9 7 12 51 12 115 1z m550 -20 l25 -7 -28 -8 c-31 -8 -67
0 -67 15 0 10 33 10 70 0z m-637 -8 c-7 -2 -21 -2 -30 0 -10 3 -4 5 12 5 17 0
24 -2 18 -5z m404 1 c-3 -3 -12 -4 -19 -1 -8 3 -5 6 6 6 11 1 17 -2 13 -5z"/>
<path d="M628 1353 c6 -2 18 -2 25 0 6 3 1 5 -13 5 -14 0 -19 -2 -12 -5z"/>
<path d="M981 776 c10 -10 80 -15 74 -6 -3 5 -22 10 -42 10 -20 0 -34 -2 -32
-4z"/>
<path d="M3263 1323 c31 -2 83 -2 115 0 31 2 5 3 -58 3 -63 0 -89 -1 -57 -3z"/>
<path d="M6830 1060 c-10 -7 15 -9 80 -9 84 2 89 3 45 9 -70 11 -108 11 -125
0z"/>
</g>
</svg>
