<?xml version="1.0" encoding="UTF-8" standalone="no"?>
<!-- Created with Inkscape (http://www.inkscape.org/) -->

<svg
   width="32"
   height="32"
   viewBox="0 0 32 32"
   version="1.1"
   id="svg1"
   inkscape:version="1.3.2 (091e20e, 2023-11-25, custom)"
   sodipodi:docname="echoesLogo.svg"
   xml:space="preserve"
   xmlns:inkscape="http://www.inkscape.org/namespaces/inkscape"
   xmlns:sodipodi="http://sodipodi.sourceforge.net/DTD/sodipodi-0.dtd"
   xmlns="http://www.w3.org/2000/svg"
   xmlns:svg="http://www.w3.org/2000/svg"><sodipodi:namedview
     id="namedview1"
     pagecolor="#505050"
     bordercolor="#ffffff"
     borderopacity="1"
     inkscape:showpageshadow="0"
     inkscape:pageopacity="0"
     inkscape:pagecheckerboard="1"
     inkscape:deskcolor="#505050"
     inkscape:document-units="px"
     inkscape:zoom="16"
     inkscape:cx="-4.15625"
     inkscape:cy="11.5"
     inkscape:window-width="2560"
     inkscape:window-height="1400"
     inkscape:window-x="-12"
     inkscape:window-y="-12"
     inkscape:window-maximized="1"
     inkscape:current-layer="layer1" /><defs
     id="defs1" /><g
     inkscape:label="Layer 1"
     inkscape:groupmode="layer"
     id="layer1"
     transform="matrix(1.501654,0,0,1.4979229,-8.0263658,-7.9667705)"><path
       id="rect1"
       style="font-variation-settings:'wdth' 87, 'wght' 700;fill:#000000;stroke-width:0.20798"
       d="m 5.4794804,-4.5397476 c -0.3353071,0.016376 -0.6504318,0.2114359 -0.806658,0.5363613 l -1.5194807,2.9673136 c -0.2272383,0.472619 -0.086574,1.408662 0.3860436,1.635902 l 3.2579111,1.361944 c 0.4726182,0.227239 1.018143,-0.04353 1.2453814,-0.516145 l 1.4223523,-2.982579 c 0.1562264,-0.324925 0.2843403,-0.707466 0.087662,-0.979478 -0.089399,-0.123643 -0.6494988,-0.451734 -0.7971919,-0.522746 L 5.9363123,-4.4469162 c -0.147693,-0.071007 -0.3044196,-0.1002731 -0.4568319,-0.092831 z m 0.5724805,0.3172784 c 0.1181768,5.2e-5 0.2245627,0.018917 0.3099049,0.059827 l 0.6691968,0.3416205 c -0.049164,-0.01021 -0.095572,-0.01589 -0.1370493,-0.01568 -0.1186108,6.04e-4 -0.2393621,0.02992 -0.351061,0.09118 l -2.3364279,1.127596 c -0.00893,0.0049 -0.017198,0.01148 -0.025928,0.01692 l 0.4514819,-0.905213 c 0.1765533,-0.370156 0.9077835,-0.7164697 1.4198826,-0.716244 z m 0.8490487,0.4282635 c 0.2410058,-0.0087 0.4678482,0.113182 0.5926469,0.352347 l 0.2856227,0.617228 c -0.023009,-0.01669 -0.047068,-0.03171 -0.072434,-0.04497 -0.083953,-0.04387 -0.1801864,-0.06795 -0.2819186,-0.06643 l -2.1940279,0.0326 c -0.051093,7.66e-4 -0.1003248,0.009 -0.1473386,0.02186 l 1.4877903,-0.81857 c 0.1074402,-0.0591 0.2201107,-0.09011 0.3296598,-0.09407 z m 0.6654931,0.246313 1.2931224,0.659724 c 0.1422387,0.06818 0.3616479,0.265868 0.4477774,0.377516 0.1894861,0.245624 0.2317286,0.540781 0.074904,0.850339 l -0.4300806,0.916764 c -0.00744,-0.102554 -0.035648,-0.205268 -0.088485,-0.3016 l -1.0387783,-2.194954 c -0.069138,-0.120404 -0.1593549,-0.22303 -0.2584599,-0.307789 z m -0.269572,0.755857 c 0.089113,0.0028 0.3181542,0.06526 0.4123833,0.148943 0.088828,0.04202 0.2020786,0.220248 0.2008414,0.43569 l -0.03169,1.934613 c 0.00775,0.356018 -0.1745765,0.552634 -0.4876989,0.565242 l -1.820331,0.135328 c -0.4682154,0.0058 -0.80921,-0.228401 -0.8148895,-0.541724 l 0.093836,-1.880977 c 0.00996,-0.272042 0.3118257,-0.664145 0.6251599,-0.669214 l 1.7935799,-0.125426 c 0.00621,-0.0021 0.016079,-0.0029 0.028809,-0.0024 z m -2.4537223,0.04249 c -0.1197473,0.109391 -0.1940105,0.267484 -0.1913755,0.443116 l 0.032925,2.194129 c 2.256e-4,0.01504 0.00155,0.02982 0.00288,0.04456 l -0.5761845,-1.140385 c -0.1897766,-0.343447 -0.1314496,-1.066391 0.2123654,-1.255498 z m 3.179303,0.450956 0.6049937,1.307483 c 0.1815261,0.347876 0.1708366,0.560593 -0.1683281,0.757919 l -0.4395465,0.276847 c 0.02301,-0.06459 0.036074,-0.134339 0.034982,-0.207117 z m -4.2551216,0.526045 c -0.0018,0.127296 0.020849,0.24851 0.075316,0.34781 l 1.3215198,2.409086 c 0.071076,0.129584 0.1752883,0.228711 0.2959119,0.293761 L 3.8673991,0.5338153 C 3.4071227,0.3266473 3.0047752,-0.2240167 3.2220725,-0.6795987 Z m 2.1298244,0.146881 -10e-8,0.773598 h 0.1382842 l 10e-8,-0.361838 c 0,-0.02198 0.00542,-0.03904 0.016051,-0.05075 0.010992,-0.01206 0.026294,-0.01774 0.046506,-0.01774 0.020921,0 0.037161,0.0056 0.048153,0.01733 0.011347,0.0117 0.016874,0.02882 0.016874,0.05116 l 1e-7,0.361838 h 0.1382842 v -0.380404 c 1e-7,-0.0578 -0.012687,-0.102474 -0.037864,-0.133678 -0.024822,-0.03156 -0.060029,-0.04745 -0.105771,-0.04745 -0.030849,0 -0.057504,0.0091 -0.079843,0.02723 -0.016679,0.01372 -0.030814,0.03218 -0.042391,0.05529 v -0.294586 z m 0.7148803,0.212069 c -0.063472,0 -0.1130574,0.01701 -0.1481617,0.05034 -0.035104,0.03334 -0.052268,0.08053 -0.052268,0.141517 v 0.184013 c 0,0.06135 0.017163,0.108713 0.052268,0.142754 0.035104,0.03368 0.08469,0.05075 0.1481617,0.05075 0.063471,0 0.1125887,-0.01659 0.1473386,-0.04992 0.035104,-0.03369 0.05268,-0.08135 0.05268,-0.142342 v -0.18525 c 0,-0.06099 -0.017576,-0.108186 -0.05268,-0.141518 -0.03475,-0.03333 -0.083867,-0.05034 -0.1473386,-0.05034 z m -1.4993142,8.12e-4 c -0.065244,0 -0.1160522,0.019 -0.1518658,0.05694 -0.035814,0.03759 -0.053503,0.09094 -0.053503,0.160084 l 0,0.144404 c -1e-7,0.0656 0.018271,0.116489 0.055149,0.152657 0.037232,0.03617 0.089375,0.05446 0.1563929,0.05446 0.051416,0 0.092733,-0.01155 0.1242912,-0.03424 0.031913,-0.02305 0.05304,-0.05687 0.062969,-0.101909 L 5.18933,-1.0212267 c -0.00532,0.01808 -0.014398,0.03163 -0.027163,0.04084 -0.01241,0.0092 -0.028068,0.01362 -0.046506,0.01362 -0.025176,0 -0.044556,-0.0068 -0.05803,-0.02104 -0.013475,-0.01418 -0.020166,-0.03435 -0.020166,-0.06023 l 10e-8,-0.02764 h 0.2749221 v -0.09902 c 0,-0.07589 -0.017163,-0.134274 -0.052268,-0.175761 -0.03475,-0.04149 -0.083867,-0.0623 -0.1473385,-0.0623 z m 0.5066307,0 c -0.067018,0 -0.1186354,0.01783 -0.1551582,0.05364 -0.036523,0.03546 -0.054738,0.08576 -0.054738,0.151006 l 1e-7,0.161733 c 0,0.06418 0.018215,0.113897 0.054737,0.149356 0.036523,0.03511 0.088141,0.05281 0.1551583,0.05281 0.057444,0 0.10173,-0.01225 0.132934,-0.03672 0.031559,-0.02447 0.051464,-0.06299 0.059265,-0.115111 l -0.1284069,-0.04126 c -0.00425,0.02199 -0.011586,0.03846 -0.022224,0.04909 -0.010638,0.01029 -0.024661,0.01526 -0.042391,0.01526 -0.021985,0 -0.039446,-0.0068 -0.051857,-0.02063 -0.01241,-0.01383 -0.01852,-0.03335 -0.01852,-0.05817 l 1e-7,-0.151006 c 0,-0.02589 0.00611,-0.04606 0.01852,-0.06024 0.01241,-0.01418 0.029872,-0.02104 0.051857,-0.02104 0.017729,0 0.031753,0.0055 0.042391,0.01651 0.010992,0.01063 0.018793,0.02734 0.023048,0.05075 l 0.1275837,-0.03961 c -0.0078,-0.0539 -0.027706,-0.09365 -0.059265,-0.118825 -0.031204,-0.02518 -0.07549,-0.03755 -0.1329341,-0.03755 z m 1.4968446,0 c -0.065244,0 -0.1156404,0.019 -0.1514541,0.05694 -0.035814,0.03759 -0.053915,0.09094 -0.053915,0.160084 l -1e-7,0.144404 c 0,0.0656 0.018272,0.116489 0.055149,0.152657 0.037232,0.03617 0.089375,0.05446 0.156393,0.05446 0.051416,0 0.093144,-0.01155 0.1247028,-0.03424 0.031913,-0.02305 0.052628,-0.05687 0.062557,-0.101909 l -0.116883,-0.04085 c -0.00532,0.01808 -0.014398,0.03163 -0.027163,0.04085 -0.012411,0.0092 -0.027656,0.01361 -0.046095,0.01361 -0.025176,0 -0.044555,-0.0068 -0.05803,-0.02104 -0.013475,-0.01418 -0.020166,-0.03435 -0.020166,-0.06023 v -0.02764 h 0.2749224 l -10e-8,-0.09902 c -1e-7,-0.07588 -0.017576,-0.134274 -0.05268,-0.175761 -0.03475,-0.04149 -0.083867,-0.0623 -0.1473385,-0.0623 z m 0.47741,0 c -0.059571,0 -0.1064153,0.0153 -0.1411653,0.0458 -0.034395,0.03014 -0.051856,0.07123 -0.051856,0.123363 0,0.03014 0.00477,0.05471 0.013993,0.07386 0.00922,0.01914 0.021382,0.03445 0.036629,0.0458 0.015247,0.01099 0.032183,0.01961 0.050622,0.026 0.018439,0.0064 0.037179,0.01189 0.055972,0.01651 0.020212,0.0054 0.039009,0.01019 0.056383,0.01444 0.017375,0.0039 0.031399,0.0095 0.042391,0.01692 0.011347,0.0071 0.016874,0.01823 0.016874,0.03383 0,0.01383 -0.00617,0.02532 -0.018931,0.03383 -0.01241,0.0082 -0.029403,0.01197 -0.051033,0.01197 -0.023757,0 -0.044999,-0.0055 -0.063792,-0.01651 -0.018439,-0.01135 -0.032931,-0.02735 -0.043214,-0.04827 l -0.113179,0.05487 c 0.010992,0.04291 0.034791,0.07656 0.072023,0.10067 0.037232,0.02376 0.084374,0.03548 0.1407535,0.03548 0.063117,0 0.112405,-0.01583 0.1485732,-0.04703 0.036169,-0.0312 0.054326,-0.07353 0.054326,-0.127075 0,-0.03369 -0.00489,-0.06066 -0.014816,-0.08086 -0.00993,-0.02056 -0.023255,-0.03604 -0.039921,-0.04703 -0.016666,-0.01099 -0.034881,-0.01949 -0.054738,-0.02517 -0.019857,-0.006 -0.03935,-0.01101 -0.058853,-0.01526 -0.018084,-0.0036 -0.03502,-0.0072 -0.050622,-0.01114 -0.015602,-0.0042 -0.028289,-0.01024 -0.037864,-0.01732 -0.00957,-0.0071 -0.014404,-0.01694 -0.014404,-0.02971 0,-0.01312 0.00593,-0.0235 0.017286,-0.03094 0.011347,-0.0078 0.026649,-0.01155 0.046506,-0.01155 0.019148,10e-7 0.036141,0.005 0.051033,0.01486 0.014893,0.0099 0.026885,0.02394 0.035394,0.04167 l 0.1127675,-0.0524 c -0.011347,-0.04113 -0.034335,-0.07303 -0.068731,-0.09572 -0.034041,-0.02269 -0.076992,-0.03383 -0.128407,-0.03383 z m -2.4808854,0.123776 c 0.020212,0 0.036679,0.0067 0.049799,0.02022 0.01312,0.01347 0.019755,0.03188 0.019755,0.05529 v 0.04043 H 5.0374649 v -0.02847 c 0,-0.02766 0.00663,-0.04912 0.019755,-0.06437 0.01312,-0.01525 0.031803,-0.02311 0.05556,-0.02311 z m 2.0034754,0 c 0.020212,0 0.036679,0.0067 0.049799,0.02022 0.01312,0.01347 0.019755,0.03188 0.019755,0.05529 v 0.04043 H 7.0413518 l 1e-7,-0.02847 c -1e-7,-0.02766 0.00623,-0.04912 0.019343,-0.06437 0.01312,-0.01525 0.031803,-0.02311 0.05556,-0.02311 z m -0.5041612,0.005 c 0.019857,0 0.035046,0.0056 0.045683,0.01733 0.010992,0.0117 0.016462,0.02824 0.016462,0.04951 v 0.174936 c 0,0.02199 -0.00547,0.0391 -0.016462,0.05116 -0.010637,0.0117 -0.025826,0.01774 -0.045683,0.01774 -0.019857,0 -0.035514,-0.006 -0.046506,-0.01774 -0.010992,-0.01206 -0.016463,-0.02917 -0.016463,-0.05116 l 10e-8,-0.174935 c -10e-8,-0.02128 0.00547,-0.03781 0.016463,-0.04951 0.010992,-0.0117 0.026649,-0.01732 0.046506,-0.01732 z m 2.0351654,1.190678 -0.7136455,1.521203 C 7.705507,1.8781403 7.150567,2.0600053 6.6902907,1.8528373 L 5.5416261,1.3160633 c 0.1957191,0.07638 0.4224579,0.06895 0.6218675,-0.04043 l 2.4088623,-1.321512 c 0.026242,-0.0144 0.051157,-0.0305 0.074904,-0.04745 z m -3.7645417,0.411762 c 0.1058921,0.09384 0.2455697,0.150005 0.3988019,0.147706 L 7.3998207,0.4347893 6.165963,1.2125133 C 5.8267986,1.4098393 5.4206747,1.3504913 5.230898,1.0070453 Z" /><path
       id="path2"
       style="opacity:1;fill:#ffffff;fill-opacity:1;stroke-width:0.856106"
       d="m 17.208728,14.067124 c -0.04849,-1.86e-4 -0.113391,0.160929 -0.113391,0.160929 0,0 -0.394669,0.580181 -0.551661,0.742061 -0.156993,0.161883 -0.677557,0.799967 -0.825577,0.943861 -0.148023,0.143894 -1.027647,1.165169 -1.005219,1.214632 0.02242,0.04947 0.126377,0.165582 0.193655,0.134107 0.06729,-0.03149 0.529314,-0.440881 0.645938,-0.508333 0.116621,-0.06745 0.462181,-0.376799 0.403872,-0.264381 -0.05833,0.112421 -0.220146,0.341309 -0.265001,0.399768 -0.04486,0.05846 -0.138871,0.07663 -0.138871,0.07663 0,0 -0.11278,0.05322 -0.108288,0.125168 0.0045,0.07195 -0.0629,0.377972 0.01784,0.283542 0.08075,-0.09444 0.668872,-0.795703 0.668872,-0.795703 0,0 0.269327,-0.310711 0.291754,-0.360175 0.02242,-0.04947 0.03109,-0.161647 -0.0586,-0.148158 -0.08972,0.0135 -0.506595,0.274896 -0.587333,0.333353 -0.08075,0.05848 -0.300675,0.171149 -0.300675,0.171149 0,0 0.143609,-0.229941 0.421707,-0.549204 0.278104,-0.319264 1.01796,-1.241452 1.01796,-1.241452 0,0 0.368462,-0.574724 0.323607,-0.687142 -0.0084,-0.02108 -0.01938,-0.03061 -0.03058,-0.03065 z m -3.023298,1.418985 c -0.08039,7.05e-4 -0.170429,0.07764 -0.259906,0.09835 -0.110122,0.02548 -0.524487,0.296966 -0.685434,0.381888 -0.160945,0.08492 -0.635443,0.493969 -0.677788,0.536429 -0.04236,0.04246 -0.136537,0.06776 -0.212765,0.09323 -0.07624,0.02549 -0.13505,0.127719 -0.13505,0.127719 l 0.118482,0.0075 c 0,0 -0.278398,0.219508 -0.363102,0.312917 -0.08471,0.09342 -0.228954,0.264282 -0.245889,0.383165 -0.01695,0.118894 0.125407,0.204819 0.328702,0.213293 0.203299,0.0085 1.160651,-0.613062 1.160651,-0.613062 0,0 -0.542053,0.212089 -0.601347,0.237562 -0.05929,0.02548 -0.624796,0.238329 -0.658679,0.204354 -0.03388,-0.03398 -0.04389,-0.0851 0.06624,-0.220958 0.110122,-0.13587 0.549591,-0.603497 0.727477,-0.688418 0.177885,-0.08492 0.857327,-0.371428 0.975916,-0.439362 0.118588,-0.06793 0.405557,-0.255475 0.55803,-0.425312 0.152467,-0.169839 0.05113,-0.145743 -0.04205,-0.196691 -0.01746,-0.0096 -0.03496,-0.0129 -0.05351,-0.01276 z m 0.01657,0.131548 c 0.04726,0.0068 -0.171217,0.150882 -0.236972,0.197967 -0.07014,0.05022 -0.558272,0.32859 -0.621731,0.34868 -0.06345,0.0201 -0.253537,0.09323 -0.253537,0.09323 0,0 0.437276,-0.337255 0.527454,-0.390827 0.09019,-0.05356 0.481866,-0.234388 0.572045,-0.24778 0.0058,-8.33e-4 0.0096,-0.0017 0.01276,-0.0013 z m 5.65037,0.02682 c -0.01923,0.0012 -0.03875,0.0048 -0.06115,0.01143 -0.08956,0.0266 -0.326071,0.113098 -0.392405,0.159651 -0.06634,0.04655 -0.214763,0.08952 -0.244617,0.199247 -0.02985,0.109735 0.08915,0.249277 0.122311,0.275877 0.03316,0.0266 0.12247,0.124025 -0.01024,0.217127 -0.132678,0.09311 -0.324469,0.25921 -0.447189,0.309086 -0.122722,0.04988 -0.192578,0.108804 -0.235697,0.118787 -0.04312,0.0099 -0.149064,0.04342 -0.149064,0.04342 0,0 -0.04019,0.143532 0.105749,0.163482 0.145937,0.01995 0.657383,-0.322872 0.673967,-0.329522 0.01659,-0.0067 0.297642,-0.212131 0.27774,-0.321857 -0.0199,-0.109723 -0.07917,-0.212967 -0.13887,-0.269492 -0.05969,-0.05652 -0.03014,-0.163663 0.03948,-0.223513 0.06966,-0.05985 0.365584,-0.215827 0.415336,-0.232452 0.04975,-0.01663 0.178544,-0.02048 0.238247,0.01276 0.05971,0.03326 -0.0096,-0.0789 -0.05606,-0.102174 -0.03484,-0.01745 -0.07992,-0.0355 -0.137596,-0.03193 z m -1.177214,0.118774 c -0.05714,0.0017 -0.133639,0.01434 -0.207667,0.01917 -0.14806,0.0097 -0.287192,0.154331 -0.41916,0.235006 -0.131973,0.08067 -0.382078,0.409848 -0.456106,0.484065 -0.07404,0.07421 -0.22282,0.361781 -0.235699,0.452133 -0.01289,0.09035 0.09032,0.171142 0.164352,0.232453 0.07404,0.06132 0.241663,0.006 0.341442,-0.0166 0.09978,-0.02259 0.427803,-0.273995 0.514712,-0.332075 0.0869,-0.05807 0.544017,-0.454689 0.544017,-0.454689 l -0.238247,0.106014 -0.607717,0.361451 c 0,0 -0.406207,0.309357 -0.486684,0.222235 -0.08046,-0.08712 0.05096,-0.302699 0.05096,-0.302699 0,0 0.157909,-0.296653 0.225505,-0.264384 0.0676,0.03227 0.232809,0.0023 0.326155,-0.0332 0.09333,-0.0355 0.324475,-0.273861 0.424256,-0.344847 0.09978,-0.07099 0.154158,-0.225798 0.154158,-0.312918 0,-0.04357 -0.03716,-0.0527 -0.09428,-0.05108 z m -3.343083,0.02172 c -0.08126,0.005 -0.184574,0.02969 -0.263727,0.05237 -0.126642,0.03628 -0.426136,0.2319 -0.527451,0.289926 -0.101307,0.05804 -0.615314,0.457096 -0.727479,0.522382 -0.112169,0.06529 -0.528668,0.489483 -0.550385,0.540263 -0.0217,0.05079 0.03623,0.07995 0.0688,0.116223 0.03257,0.03625 0.151616,0.05727 0.242067,0.05364 0.09045,-0.0035 0.47787,-0.286092 0.615361,-0.376778 0.137493,-0.09068 0.853609,-0.620726 0.853609,-0.620726 0,0 -0.126231,0.0302 -0.17327,0.04471 -0.04704,0.0145 -0.303832,0.173803 -0.405145,0.220956 -0.101306,0.04716 -0.517927,0.377593 -0.687982,0.482788 -0.170068,0.10519 -0.184228,0.03214 -0.129953,-0.05492 0.05427,-0.08705 0.326162,-0.304845 0.416612,-0.388273 0.09045,-0.08343 0.575558,-0.42107 0.705818,-0.504499 0.130259,-0.08343 0.492033,-0.206855 0.5644,-0.228622 0.07236,-0.02177 0.173622,-0.0942 0.112115,-0.134106 -0.02308,-0.01496 -0.06462,-0.0184 -0.113391,-0.01532 z m 1.872839,0.06515 c -0.03931,0.0029 -0.08482,0.02139 -0.143966,0.06769 -0.157682,0.123506 -0.602076,0.504273 -0.73512,0.721626 -0.13305,0.217355 -0.202258,0.276271 -0.118483,0.399768 0.08377,0.123494 0.236446,0.203342 0.295578,0.173702 0.05914,-0.02964 0.398923,-0.271858 0.477765,-0.341018 0.07885,-0.06916 0.424068,-0.345766 0.493053,-0.409984 0.06898,-0.06422 0.137596,-0.129249 0.137596,-0.173702 0,-0.04445 0.0586,-0.09451 0.0586,-0.09451 0,0 -0.171994,-0.08316 -0.171994,-0.162206 0,-0.07903 -0.0287,-0.108128 -0.12231,-0.132837 -0.05853,-0.01543 -0.10523,-0.05336 -0.170722,-0.04854 z m 1.414186,0.01405 c 0.01882,-0.002 0.02964,9.61e-4 0.02802,0.01143 -0.0065,0.04195 -0.0834,0.132226 -0.147789,0.190305 -0.06437,0.05807 -0.238445,0.207311 -0.280289,0.2299 -0.04183,0.02259 -0.234423,0.0447 -0.234423,0.0447 0,0 0.30617,-0.339268 0.389855,-0.384442 0.06276,-0.03388 0.188188,-0.08575 0.244617,-0.09196 z m -1.344112,0.150713 c 0.01602,-9.61e-4 0.02914,0.0032 0.03948,0.01405 0.06621,0.06988 0.136272,0.142574 0.07008,0.229899 -0.06621,0.08734 -0.292219,0.311009 -0.375843,0.370391 -0.08363,0.05939 -0.314688,0.213295 -0.314688,0.213295 0,0 -0.194223,0.171069 -0.239519,0.157097 -0.04529,-0.01398 -0.09813,-0.0381 -0.04585,-0.114946 0.05227,-0.07684 0.223032,-0.266156 0.23697,-0.297592 0.01394,-0.03143 0.300307,-0.362881 0.349087,-0.390827 0.04117,-0.02358 0.193783,-0.176125 0.280289,-0.181363 z" /><path
       id="rect8"
       style="opacity:1;fill:#ffffff;fill-opacity:1;stroke-width:1.02022"
       d="m 8.0453051,5.4019942 c -1.450138,0 -2.617047,1.1674424 -2.617047,2.6175802 V 23.980431 c 0,1.450138 1.166909,2.61758 2.617047,2.61758 H 23.954563 c 1.450138,0 2.617048,-1.167442 2.617048,-2.61758 V 8.0195744 c 0,-1.4501378 -1.16691,-2.6175802 -2.617048,-2.6175802 z m 0.209091,0.3672254 14.7210929,0.6884533 c 1.361299,0.063663 2.396884,1.0986476 2.459825,2.4599664 l 0.686743,14.8531787 c 0.06294,1.361319 -1.098121,2.514231 -2.459825,2.459967 L 9.0035701,25.646643 c -1.361705,-0.05426 -2.391654,-1.098902 -2.459825,-2.459967 L 5.7945711,8.229186 c -0.06817,-1.3610657 1.098525,-2.5236295 2.459825,-2.4599664 z"
       sodipodi:nodetypes="ssssssssssssssssss" /><path
       id="path9"
       style="opacity:1;fill:#ffffff;fill-opacity:1;stroke-width:0.770104"
       d="m 6.4105861,18.401042 c -0.387824,1.026168 0.133042,2.1234 1.136504,2.554958 L 19.19047,25.963457 c 1.003462,0.431558 2.197314,-0.104984 2.546007,-1.145169 L 25.604516,13.279522 C 25.953208,12.239338 25.476317,11.144619 24.46801,10.724564 L 13.199218,6.0300411 C 12.190912,5.6099856 11.041035,6.1490415 10.653211,7.1752093 Z m 0.31462,-0.04892 4.4069319,-10.2004909 c 0.408832,-0.9463013 1.429017,-1.4295618 2.3928,-1.076468 l 10.674566,3.9107519 c 0.963783,0.353093 1.430412,1.436252 1.067975,2.40137 l -3.942157,10.497381 c -0.362437,0.965115 -1.432578,1.439171 -2.392802,1.076467 L 7.7931811,20.75349 C 6.8329551,20.390786 6.5722391,19.3719 6.7252061,18.352122 Z"
       sodipodi:nodetypes="sssssssssssssssssss" /><path
       id="path10"
       style="opacity:1;fill:#ffffff;fill-opacity:1;stroke-width:0.555378"
       d="m 9.7432013,12.271821 c -0.749131,0.24957 -1.17144,1.05073 -0.91473,1.797018 L 11.4695,21.746641 c 0.25671,0.746287 1.050466,1.17696 1.794638,0.9129 l 8.984407,-3.188009 c 0.744172,-0.26406 1.19376,-1.058825 0.91473,-1.797018 L 20.355763,10.247059 C 20.076733,9.5088679 19.310256,9.0845896 18.561125,9.3341599 Z m 0.169954,0.154771 8.3185987,-2.380593 c 0.713361,-0.2041481 1.387091,0.179562 1.686762,0.857871 l 2.976822,6.738077 c 0.299671,0.678309 -0.152509,1.464617 -0.859836,1.688874 l -8.435233,2.674389 c -0.707327,0.224258 -1.407351,-0.170926 -1.686763,-0.85787 L 9.0533203,14.115466 c -0.279412,-0.686945 0.146474,-1.484727 0.859835,-1.688874 z"
       sodipodi:nodetypes="ssssssssssssssssss" /><path
       id="path11"
       style="opacity:1;fill:#ffffff;fill-opacity:1;stroke-width:0.433913"
       d="m 20.746182,12.72748 c 0.0016,-0.583793 -0.535371,-1.054014 -1.186883,-1.043914 l -7.14024,0.110686 c -0.651512,0.0101 -1.169414,0.479331 -1.165352,1.063113 l 0.04463,6.414835 c 0.0041,0.58378 0.535537,1.06178 1.186883,1.043915 l 7.077809,-0.194135 c 0.651346,-0.01787 1.163711,-0.47932 1.165352,-1.063114 z m -0.164141,0.08552 -0.332017,5.855605 c -0.03106,0.547836 -0.484557,0.955931 -1.095182,0.999243 l -6.577285,0.46653 c -0.610624,0.04331 -1.136093,-0.432907 -1.115419,-0.981202 l 0.222975,-5.913544 c 0.02067,-0.548297 0.484192,-0.961908 1.09518,-0.999244 l 6.68633,-0.408594 c 0.610989,-0.03734 1.138424,0.432965 1.115418,0.9812 z"
       sodipodi:nodetypes="sssssssssssssssssss" /></g></svg>
